
<svg width="142px" height="257px" viewBox="0 0 142 257" version="1.1" xmlns="http://www.w3.org/2000/svg" xmlns:xlink="http://www.w3.org/1999/xlink">
    <desc>Created with Sketch.</desc>
    <defs></defs>
    <g id="Page-1" stroke="none" stroke-width="1" fill="none" fill-rule="evenodd">
        <g id="PASS-3" transform="translate(-216.000000, 0.000000)">
            <g id="Group" transform="translate(216.000000, -49.000000)">
                <path d="M164.5,0.5 L0.5,305.5" id="Line" stroke="#E5E5E5" opacity="0.304185268" stroke-linecap="square"></path>
                <g id="LOGO---White" transform="translate(43.000000, 111.000000)">
                    <polygon id="Fill-1" fill="#FFFFFF" points="0 13.5916735 0 46.8161633 8.0782377 46.8161633 8.0782377 34.1553469 17.6739344 34.1553469 17.6739344 26.7018776 8.0782377 26.7018776 8.0782377 21.0451429 18.0309836 21.0451429 18.0309836 13.5916735"></polygon>
                    <polygon id="Fill-2" fill="#FFFFFF" points="80.6362303 13.5916735 80.6362303 46.8161633 98.979632 46.8161633 98.979632 39.363102 88.714468 39.363102 88.714468 33.6614694 98.6672139 33.6614694 98.6672139 26.208 88.714468 26.208 88.714468 21.0451429 98.979632 21.0451429 98.979632 13.5916735"></polygon>
                    <g id="Group-9" stroke-width="1" transform="translate(22.315574, 0.122449)">
                        <path d="M37.2630725,39.8694694 C31.7734414,39.8694694 28.1583184,35.2898776 28.1583184,29.9919184 C28.1583184,24.7837551 31.7734414,20.2939592 37.1738102,20.2939592 C42.5741791,20.2939592 46.1450766,24.9633469 46.1450766,30.1266122 C46.1450766,35.2000816 42.5741791,39.8694694 37.2630725,39.8694694 M37.1291791,12.840898 C35.5488307,12.840898 34.0244742,13.0319184 32.5694988,13.3968163 L20.4841955,35.4498776 C22.693843,42.4547755 29.4550561,47.3225306 37.0849537,47.3225306 C46.7699127,47.3225306 54.5803635,39.9143673 54.5803635,30.0817143 C54.5803635,20.2939592 46.7699127,12.840898 37.1291791,12.840898" id="Fill-3" fill="#FFFFFF"></path>
                        <polygon id="Fill-5" fill="#FFFFFF" points="18.2732496 39.2408571 8.52012664 39.2408571 8.52012664 13.4694286 0.0848397541 13.4694286 0.0848397541 46.6939184 14.1886881 46.6939184"></polygon>
                        <polygon id="Fill-7" fill="#0B7AFF" points="7.87841189 59.5918367 40.3788135 0.285714286 38.9891619 0.285714286 6.48835451 59.5918367"></polygon>
                    </g>
                </g>
            </g>
        </g>
    </g>
</svg>